<svg id="logo" xmlns="http://www.w3.org/2000/svg" width="93.777" height="83.862" viewBox="0 0 93.777 83.862">
  <path id="Path_1" data-name="Path 1" d="M85.036,335.2,76,359.164h5.29l1.872-5.337H92.1l1.81,5.337h5.456L90.424,335.2Zm-.5,14.7,3.113-8.793h.068l3.013,8.793Zm31.193-5.738a7.29,7.29,0,0,0-2.44-2.048,7.516,7.516,0,0,0-3.517-.767,6.783,6.783,0,0,0-2.947.635,5.24,5.24,0,0,0-2.208,2.048h-.068v-2.22h-4.52v30.409h4.757v-15.2h.067a5.594,5.594,0,0,0,2.226,1.928,6.71,6.71,0,0,0,2.964.654,7.242,7.242,0,0,0,3.327-.734,7.067,7.067,0,0,0,2.375-1.981,8.666,8.666,0,0,0,1.422-2.854,11.979,11.979,0,0,0,.468-3.357,13.312,13.312,0,0,0-.468-3.544,8.7,8.7,0,0,0-1.44-2.969Zm-3.046,8.427a5.141,5.141,0,0,1-.685,1.763,3.826,3.826,0,0,1-1.271,1.221,4.3,4.3,0,0,1-3.9,0,3.72,3.72,0,0,1-1.289-1.221,5.337,5.337,0,0,1-.7-1.763,9.787,9.787,0,0,1-.216-2.048,10.79,10.79,0,0,1,.2-2.081,5.221,5.221,0,0,1,.687-1.779,3.982,3.982,0,0,1,1.272-1.262,3.691,3.691,0,0,1,1.959-.484,3.61,3.61,0,0,1,1.922.484,4.044,4.044,0,0,1,1.29,1.279,5.542,5.542,0,0,1,.72,1.793,9.691,9.691,0,0,1,.217,2.05,10.375,10.375,0,0,1-.2,2.048Zm21.456-8.742A8.024,8.024,0,0,0,131.309,342a10.016,10.016,0,0,0-3.7-.652,9.861,9.861,0,0,0-3.683.652,7.943,7.943,0,0,0-4.617,4.732,10.685,10.685,0,0,0-.636,3.775,10.549,10.549,0,0,0,.636,3.76,8.072,8.072,0,0,0,1.807,2.868,7.863,7.863,0,0,0,2.81,1.833,10.094,10.094,0,0,0,3.683.634,10.252,10.252,0,0,0,3.7-.634,7.814,7.814,0,0,0,2.827-1.833,8.189,8.189,0,0,0,1.806-2.868,10.549,10.549,0,0,0,.637-3.76,10.685,10.685,0,0,0-.637-3.775,8.155,8.155,0,0,0-1.806-2.884Zm-2.51,8.691a5.485,5.485,0,0,1-.686,1.779,3.6,3.6,0,0,1-1.31,1.257,3.974,3.974,0,0,1-2.023.468,3.922,3.922,0,0,1-2.011-.468,3.615,3.615,0,0,1-1.286-1.257,5.4,5.4,0,0,1-.686-1.779,10.052,10.052,0,0,1-.2-2.032,10.266,10.266,0,0,1,.2-2.047,5.2,5.2,0,0,1,.686-1.779,3.94,3.94,0,0,1,6.629,0,5.277,5.277,0,0,1,.686,1.779,10.405,10.405,0,0,1,.2,2.047,10.187,10.187,0,0,1-.2,2.032Zm6.322,6.629H142.7V335.2h-4.752v23.966Zm7.8,0H150.5V335.2h-4.754v23.966Zm23.4-12.436A7.918,7.918,0,0,0,164.508,342a9.994,9.994,0,0,0-3.7-.652,9.892,9.892,0,0,0-3.685.652,7.937,7.937,0,0,0-4.617,4.732,10.643,10.643,0,0,0-.636,3.775,10.508,10.508,0,0,0,.636,3.76,8.176,8.176,0,0,0,1.806,2.868,7.917,7.917,0,0,0,2.811,1.833,10.125,10.125,0,0,0,3.685.634,10.23,10.23,0,0,0,3.7-.634,7.814,7.814,0,0,0,2.827-1.833,8.128,8.128,0,0,0,1.809-2.868,10.508,10.508,0,0,0,.632-3.76,10.643,10.643,0,0,0-.632-3.775Zm-4.318,5.808a5.467,5.467,0,0,1-.687,1.779,3.584,3.584,0,0,1-1.306,1.257,3.988,3.988,0,0,1-2.023.468,3.9,3.9,0,0,1-2.007-.468,3.626,3.626,0,0,1-1.292-1.257,5.464,5.464,0,0,1-.686-1.779,10.329,10.329,0,0,1-.2-2.032,10.55,10.55,0,0,1,.2-2.047,5.258,5.258,0,0,1,.686-1.779,3.9,3.9,0,0,1,1.292-1.262,3.832,3.832,0,0,1,2.007-.484,3.923,3.923,0,0,1,2.023.484,3.851,3.851,0,0,1,1.306,1.262,5.261,5.261,0,0,1,.687,1.779,10.48,10.48,0,0,1,.2,2.047,10.121,10.121,0,0,1-.2,2.032Z" transform="translate(-76 -288.355)" fill="#007d9e"/>
  <path id="Path_2" data-name="Path 2" d="M115.816,369.363h-3.608v-2.91h-.959v7.041h.959V370.2h3.608v3.292h.96v-7.041h-.96v2.91Zm6.241-3.108a3.052,3.052,0,0,0-2.68,1.314,4.141,4.141,0,0,0-.711,2.443,4.075,4.075,0,0,0,.827,2.617,3.2,3.2,0,0,0,2.549,1.071,3.153,3.153,0,0,0,2.669-1.226,4.181,4.181,0,0,0,.8-2.621,3.907,3.907,0,0,0-.7-2.4,3.217,3.217,0,0,0-2.757-1.2Zm1.919,5.695a1.986,1.986,0,0,1-1.821.906,2.219,2.219,0,0,1-1.912-.807,3.233,3.233,0,0,1-.592-1.969,3.173,3.173,0,0,1,.686-2.217,2.305,2.305,0,0,1,1.781-.752,2.2,2.2,0,0,1,1.768.759,2.949,2.949,0,0,1,.65,2,3.886,3.886,0,0,1-.56,2.081Zm7.94-1.858a2.96,2.96,0,0,0-1.063-.448l-.955-.221a6.109,6.109,0,0,1-1.236-.386.816.816,0,0,1-.419-.759,1.127,1.127,0,0,1,.353-.825,1.584,1.584,0,0,1,1.162-.356,1.659,1.659,0,0,1,1.416.555,1.818,1.818,0,0,1,.294.868h.894a1.972,1.972,0,0,0-.75-1.713,3.094,3.094,0,0,0-1.827-.532,2.5,2.5,0,0,0-1.806.609,2.046,2.046,0,0,0-.636,1.559,1.5,1.5,0,0,0,.648,1.32,4.28,4.28,0,0,0,1.278.465l.924.214a3.426,3.426,0,0,1,1.1.418.93.93,0,0,1,.35.816,1.075,1.075,0,0,1-.821,1.065,2.656,2.656,0,0,1-.942.153,1.784,1.784,0,0,1-1.608-.7,1.989,1.989,0,0,1-.268-.975h-.9a2.3,2.3,0,0,0,.708,1.806,2.821,2.821,0,0,0,2,.671,3.613,3.613,0,0,0,1.922-.5,1.81,1.81,0,0,0,.827-1.678,1.685,1.685,0,0,0-.649-1.432Zm5.96-3.638h-3.142v7.041h.952v-2.973h2.19a1.92,1.92,0,0,0,1.566-.613,2.163,2.163,0,0,0,.51-1.434,1.917,1.917,0,0,0-.574-1.491,2.119,2.119,0,0,0-1.5-.53Zm.722,2.984a1.77,1.77,0,0,1-1.032.28h-1.88v-2.447h1.88a2.079,2.079,0,0,1,.858.148,1.062,1.062,0,0,1,.568,1.057,1.087,1.087,0,0,1-.395.962Zm3.523,4.056h.962v-7.041h-.962v7.041Zm2.655-6.2h2.363v6.2h.96v-6.2h2.366v-.839h-5.69v.839Zm8.627-.839-2.646,7.041h.975l.76-2.109h2.756l.735,2.109h1.044l-2.552-7.041Zm-.63,4.157L153.9,367.5l1.081,3.115Zm6.8-4.157h-.95v7.041h4.473v-.834h-3.523v-6.206Zm9.765,3.638a2.927,2.927,0,0,0-1.062-.448l-.955-.221a6.066,6.066,0,0,1-1.236-.386.815.815,0,0,1-.418-.759,1.13,1.13,0,0,1,.352-.825,1.585,1.585,0,0,1,1.16-.356,1.655,1.655,0,0,1,1.415.555,1.857,1.857,0,0,1,.3.868h.89a1.965,1.965,0,0,0-.749-1.713,3.1,3.1,0,0,0-1.828-.532,2.485,2.485,0,0,0-1.8.609,2.05,2.05,0,0,0-.64,1.559,1.488,1.488,0,0,0,.649,1.32,4.306,4.306,0,0,0,1.28.465l.918.214a3.306,3.306,0,0,1,1.1.418.925.925,0,0,1,.348.816,1.073,1.073,0,0,1-.818,1.065,2.641,2.641,0,0,1-.937.153,1.786,1.786,0,0,1-1.612-.7,2.082,2.082,0,0,1-.271-.975h-.889a2.266,2.266,0,0,0,.706,1.806,2.811,2.811,0,0,0,2,.671,3.6,3.6,0,0,0,1.92-.5,1.81,1.81,0,0,0,.829-1.678,1.7,1.7,0,0,0-.649-1.432Z" transform="translate(-78.193 -290.203)" fill="#007d9e"/>
  <path id="Path_3" data-name="Path 3" d="M118.965,335.98l2.823,2.2,2.815-2.2v-6.625h-5.638v6.625Zm5.926-13.858h-6.746v-1.608l-15.4,17.4H110.9l8.027-9.288h5.968v-.889h0V322.6h0v-.48Zm-5.926-.737H124.6v-5.57l2.977-4.62H115.636l3.329,4.62v5.57ZM101.708,301.9H86.122v27.23h7.347L110.4,310.518l-8.688-8.615Zm-5.584,9.45H93.7v2.43H91.567v-2.43H89.145v-2.135h2.422v-2.43H93.7v2.43h2.427v2.135Zm12,16.544,1.188-4.175h1.59V312.088l-16.47,18.107v7.98l8.227-9.042h3.8a1.574,1.574,0,0,0,1.666-1.235Zm.91-9.854-1.211,1.215-1.212-1.215Z" transform="translate(-76.63 -286.374)" fill="#007d9e"/>
  <path id="Path_4" data-name="Path 4" d="M116,294.051l-.183-.059c-9.522-2.455-10.1-6.98-9.85-8.6a14.67,14.67,0,0,0,.094,7.694c1.141,1.143,4.934,2.82,8.6,3.181.4.055.777.13,1.159.2,9.6,1.811,10.4,9.66,6.91,13.459.379-.728,4.409-8.886-5.464-10.556-.491-.072-.946-.163-1.362-.233-6.982-1.294-7.616-2.347-7.963-2.458-.272,1.2,1.454,7.7,7.963,8.515h.055c6.107.738,6.7,3.777,6.741,4.764l-.007.008.007-.008v.022l.017-.029a7.8,7.8,0,0,0,2.984-6.005v-.688c-.161-3.86-2.881-7.971-9.7-9.2Z" transform="translate(-77.835 -285.392)" fill="#fcba12"/>
</svg>
