<?xml version="1.0" encoding="UTF-8"?>
<!DOCTYPE svg PUBLIC "-//W3C//DTD SVG 1.1//EN" "http://www.w3.org/Graphics/SVG/1.1/DTD/svg11.dtd">
<!-- Creator: CorelDRAW 2017 -->
<svg xmlns="http://www.w3.org/2000/svg" xml:space="preserve" width="144.911mm" height="38.7182mm" version="1.1" style="shape-rendering:geometricPrecision; text-rendering:geometricPrecision; image-rendering:optimizeQuality; fill-rule:evenodd; clip-rule:evenodd"
viewBox="0 0 14066.34 3758.34"
 xmlns:xlink="http://www.w3.org/1999/xlink">
 <defs>
  <style type="text/css">
   <![CDATA[
    .fil0 {fill:#284695}
    .fil4 {fill:#2B2A29;fill-rule:nonzero}
    .fil2 {fill:url(#id0)}
    .fil1 {fill:url(#id1)}
    .fil3 {fill:url(#id2)}
   ]]>
  </style>
  <linearGradient id="id0" gradientUnits="userSpaceOnUse" x1="1940.61" y1="886.44" x2="1940.61" y2="1503.85">
   <stop offset="0" style="stop-opacity:1; stop-color:#236FB6"/>
   <stop offset="0.388235" style="stop-opacity:1; stop-color:#00A0E3"/>
   <stop offset="1" style="stop-opacity:1; stop-color:#A2D9F7"/>
  </linearGradient>
  <linearGradient id="id1" gradientUnits="userSpaceOnUse" xlink:href="#id0" x1="1273.8" y1="-0.05" x2="1273.8" y2="1163.74">
  </linearGradient>
  <linearGradient id="id2" gradientUnits="userSpaceOnUse" xlink:href="#id0" x1="607.04" y1="1503.85" x2="607.04" y2="886.44">
  </linearGradient>
 </defs>
 <g id="Layer_x0020_1">
  <metadata id="CorelCorpID_0Corel-Layer"/>
  <g id="_2618316384896">
   <g>
    <polygon class="fil0" points="-0,2800.68 -0,1566.73 565.56,1566.73 1042,2277.54 1042,1566.73 1505.03,1566.73 1505.03,1993.92 2024.68,1993.92 2024.68,1566.73 2502.79,1566.73 2502.79,2800.64 2024.68,2800.64 2024.68,2301.72 1505.03,2301.72 1505.03,2800.68 968.53,2800.68 450.53,2078.19 450.53,2800.68 "/>
    <g>
     <path class="fil1" d="M1273.75 0.21c-3.02,6.62 -79.38,204.28 -137.48,301.14 -47.08,78.43 -92.5,149.45 -136.21,229.79 -87.95,161.64 -127.53,436.79 136.21,632.6 -56.15,-258.38 -75.09,-420.62 -70.78,-522.83 35.57,170.97 86.5,335.36 153.25,492.97 4.02,-279.12 23.37,-540.4 54.05,-788.42 1.03,-6.69 1.09,-6.69 2,0 30.68,248.02 50.04,509.3 54.05,788.42 66.76,-157.6 117.7,-322 153.25,-492.97 4.3,102.21 -14.62,264.46 -70.76,522.83 263.73,-195.81 224.16,-470.96 136.2,-632.6 -43.73,-80.34 -89.14,-151.36 -136.2,-229.79 -58.11,-96.86 -134.47,-294.52 -137.48,-301.14 0,-0.28 -0.1,-0.26 -0.1,0z"/>
     <g>
      <path class="fil2" d="M2329.45 886.52c-5.29,0.62 -157.54,27.96 -239.98,28.45 -66.76,0.39 -128.29,-1.01 -194.99,2.2 -134.16,6.43 -320.8,86.09 -342.91,324.86 139.86,-133.02 233.88,-206.35 299.26,-242.42 -93.16,87.01 -176.37,181.12 -249.36,282.55 175.63,-103.37 345.94,-190.38 512.27,-265.32 4.55,-1.9 4.57,-1.84 0.76,1.26 -143.07,113.19 -298.69,224.35 -471.28,332.7 123.63,-18.12 245.48,-48.69 365.61,-91.35 -62.12,41.45 -170.5,91.17 -352.95,154.14 222.15,90.25 378.77,-38.8 446.23,-154.95 33.55,-57.75 60.61,-113 91.68,-172.09 38.38,-72.99 132.72,-195.58 135.69,-199.98 0.17,-0.1 0.14,-0.15 -0.03,-0.05z"/>
      <path class="fil3" d="M218.2 886.52c5.27,0.62 157.52,27.96 239.96,28.45 66.76,0.39 128.29,-1.01 194.99,2.2 134.16,6.43 320.8,86.09 342.92,324.86 -139.87,-133.02 -233.89,-206.35 -299.27,-242.42 93.16,87.01 176.37,181.12 249.36,282.55 -175.63,-103.37 -345.93,-190.38 -512.27,-265.32 -4.55,-1.9 -4.57,-1.84 -0.76,1.26 143.07,113.19 298.71,224.35 471.28,332.7 -123.63,-18.12 -245.48,-48.69 -365.61,-91.35 62.12,41.45 170.5,91.17 352.95,154.14 -222.15,90.25 -378.77,-38.8 -446.23,-154.95 -33.53,-57.75 -60.6,-113 -91.68,-172.09 -38.38,-72.99 -132.7,-195.58 -135.69,-199.98 -0.17,-0.1 -0.13,-0.15 0.05,-0.05z"/>
     </g>
    </g>
   </g>
   <path class="fil4" d="M2982.63 2780.64l0 -1225.15 124.07 0 691.94 1051.38 0 -1051.38 109.03 0 0 1225.15 -124.66 0 -689.66 -1051.38 0 1051.38 -110.73 0zm1677.46 -463.37c-27.26,9.94 -61.89,18.18 -104.49,24.12 -42.29,6.25 -110.73,11.65 -204.98,16.76 -65.59,17.31 -114.72,41.46 -147.93,73.26 -33.23,31.52 -49.97,69.56 -49.97,113.84 0,50.55 17.88,90.57 53.66,120.69 35.78,29.81 84.31,44.85 145.94,44.85 93.69,0 168.36,-24.13 224.3,-72.69 55.65,-48.54 83.47,-114.7 83.47,-198.47l0 -122.37zm6.53 335.32c-46.57,50.25 -96.82,88.01 -151.32,113 -54.24,25 -112.73,37.48 -175.47,37.48 -89.15,0 -160.42,-23.28 -213.24,-69.85 -53.09,-46.55 -79.49,-108.73 -79.49,-186.25 0,-50.53 11.93,-94.55 36.06,-132.31 24.13,-37.76 59.06,-67.29 105.06,-88.87 52.81,-23.84 140.82,-40.6 263.77,-49.97 23.85,-1.71 42.01,-3.12 54.22,-4.25 7.11,-1.7 16.74,-3.69 28.96,-5.96 84.32,-17.05 126.64,-53.39 126.64,-108.75 0,-68.72 -17.03,-118.11 -51.11,-147.64 -34.35,-29.82 -90.29,-44.57 -168.65,-44.57 -79.23,0 -139.98,16.45 -182.3,49.39 -42,33.22 -64.74,82.06 -68.14,146.8l-100.5 -0.85c2.26,-88.01 34.62,-157.85 97.39,-208.97 62.46,-51.39 147.07,-76.94 253.54,-76.94 105.9,0 186.53,22.71 241.32,68.14 54.81,45.42 82.34,112.14 82.34,199.58l0 482.4c0,36.63 4.55,59.34 13.36,68.14 8.78,8.79 25.55,13.34 49.96,13.34 7.67,0 14.49,0 19.87,-0.28 5.68,-0.28 11.37,-0.85 17.61,-1.42l0 76.67c-12.78,2.83 -25.55,4.82 -38.33,6.25 -12.78,1.42 -24.41,1.98 -34.93,1.98 -42.02,0 -73.82,-10.22 -94.83,-30.66 -21.01,-20.73 -31.8,-51.11 -31.8,-91.72l0 -13.9zm269.2 128.05l0 -884.15 99.09 0 0 154.74c25.27,-59.34 60.76,-103.63 105.89,-133.16 45.44,-29.25 100.8,-44 166.95,-44l11.65 0 0 107.31 -13.35 0c-88.3,0 -154.46,26.14 -198.47,78.09 -44,52.23 -66.15,130.03 -66.15,233.67l0 487.5 -105.61 0zm1023.57 -463.37c-27.26,9.94 -61.89,18.18 -104.49,24.12 -42.29,6.25 -110.73,11.65 -204.98,16.76 -65.59,17.31 -114.72,41.46 -147.93,73.26 -33.23,31.52 -49.97,69.56 -49.97,113.84 0,50.55 17.88,90.57 53.66,120.69 35.78,29.81 84.31,44.85 145.94,44.85 93.69,0 168.36,-24.13 224.3,-72.69 55.65,-48.54 83.47,-114.7 83.47,-198.47l0 -122.37zm6.53 335.32c-46.57,50.25 -96.82,88.01 -151.32,113 -54.24,25 -112.73,37.48 -175.47,37.48 -89.15,0 -160.42,-23.28 -213.24,-69.85 -53.09,-46.55 -79.49,-108.73 -79.49,-186.25 0,-50.53 11.93,-94.55 36.06,-132.31 24.13,-37.76 59.06,-67.29 105.06,-88.87 52.81,-23.84 140.81,-40.6 263.77,-49.97 23.85,-1.71 42.01,-3.12 54.22,-4.25 7.11,-1.7 16.74,-3.69 28.96,-5.96 84.32,-17.05 126.64,-53.39 126.64,-108.75 0,-68.72 -17.03,-118.11 -51.11,-147.64 -34.35,-29.82 -90.29,-44.57 -168.65,-44.57 -79.23,0 -139.98,16.45 -182.3,49.39 -42,33.22 -64.74,82.06 -68.14,146.8l-100.5 -0.85c2.26,-88.01 34.62,-157.85 97.39,-208.97 62.46,-51.39 147.07,-76.94 253.54,-76.94 105.9,0 186.53,22.71 241.32,68.14 54.81,45.42 82.34,112.14 82.34,199.58l0 482.4c0,36.63 4.55,59.34 13.36,68.14 8.78,8.79 25.55,13.34 49.96,13.34 7.67,0 14.49,0 19.87,-0.28 5.68,-0.28 11.36,-0.85 17.61,-1.42l0 76.67c-12.78,2.83 -25.55,4.82 -38.33,6.25 -12.78,1.42 -24.41,1.98 -34.93,1.98 -42.02,0 -73.82,-10.22 -94.83,-30.66 -21.01,-20.73 -31.8,-51.11 -31.8,-91.72l0 -13.9zm543.75 300.12c-25.56,68.71 -56.5,117.82 -92.85,146.78 -36.34,29.24 -84.31,43.73 -144.24,43.73 -14.46,0 -27.25,-0.57 -38.31,-1.99 -11.08,-1.42 -22.16,-3.98 -33.22,-7.11l0 -92.26c18.73,2.55 33.79,4.82 44.56,6.24 10.79,1.43 19.32,1.99 25.27,1.99 37.2,0 66.43,-9.66 87.74,-29.24 21.29,-19.32 43.43,-59.08 66.16,-119.55l40.87 -110.72 -344.39 -894.09 109.03 0 285.92 754.4 279.66 -754.4 105.62 0 -391.81 1056.22zm1019.32 -635.43c-27.25,9.94 -61.89,18.18 -104.49,24.12 -42.29,6.25 -110.72,11.65 -204.98,16.76 -65.59,17.31 -114.72,41.46 -147.93,73.26 -33.22,31.52 -49.96,69.56 -49.96,113.84 0,50.55 17.88,90.57 53.65,120.69 35.78,29.81 84.32,44.85 145.95,44.85 93.69,0 168.35,-24.13 224.3,-72.69 55.64,-48.54 83.46,-114.7 83.46,-198.47l0 -122.37zm6.53 335.32c-46.56,50.25 -96.82,88.01 -151.32,113 -54.24,25 -112.73,37.48 -175.47,37.48 -89.15,0 -160.42,-23.28 -213.24,-69.85 -53.09,-46.55 -79.49,-108.73 -79.49,-186.25 0,-50.53 11.93,-94.55 36.06,-132.31 24.13,-37.76 59.06,-67.29 105.06,-88.87 52.81,-23.84 140.82,-40.6 263.77,-49.97 23.85,-1.71 42.01,-3.12 54.22,-4.25 7.11,-1.7 16.74,-3.69 28.97,-5.96 84.31,-17.05 126.63,-53.39 126.63,-108.75 0,-68.72 -17.03,-118.11 -51.1,-147.64 -34.36,-29.82 -90.3,-44.57 -168.66,-44.57 -79.22,0 -139.98,16.45 -182.29,49.39 -42.01,33.22 -64.74,82.06 -68.14,146.8l-100.5 -0.85c2.25,-88.01 34.62,-157.85 97.38,-208.97 62.46,-51.39 147.07,-76.94 253.54,-76.94 105.91,0 186.54,22.71 241.32,68.14 54.81,45.42 82.35,112.14 82.35,199.58l0 482.4c0,36.63 4.54,59.34 13.35,68.14 8.79,8.79 25.55,13.34 49.96,13.34 7.68,0 14.49,0 19.87,-0.28 5.68,-0.28 11.37,-0.85 17.62,-1.42l0 76.67c-12.78,2.83 -25.55,4.82 -38.33,6.25 -12.78,1.42 -24.41,1.98 -34.93,1.98 -42.03,0 -73.83,-10.22 -94.84,-30.66 -21,-20.73 -31.8,-51.11 -31.8,-91.72l0 -13.9zm269.2 128.05l0 -884.15 98.81 0 0 141.4c33.49,-54.23 74.37,-95.11 123.22,-122.67 48.83,-27.54 105.34,-41.16 169.79,-41.16 60.76,0 114.42,10.78 160.42,32.37 45.99,21.57 81.2,52.51 105.61,92.27 12.78,20.71 21.87,45.42 27.55,74.68 5.39,28.96 8.22,76.65 8.22,143.37l0 25.83 0 538.05 -105.6 0 0 -548.26c0,-103.64 -15.91,-173.77 -47.71,-210.69 -32.08,-36.91 -88.01,-55.36 -168.66,-55.36 -82.62,0 -147.91,26.12 -195.9,78.64 -47.97,52.25 -71.84,123.81 -71.84,214.1l0 521.57 -103.9 0zm1418.52 -463.37c-27.26,9.94 -61.89,18.18 -104.49,24.12 -42.29,6.25 -110.73,11.65 -204.98,16.76 -65.59,17.31 -114.72,41.46 -147.93,73.26 -33.23,31.52 -49.97,69.56 -49.97,113.84 0,50.55 17.88,90.57 53.66,120.69 35.78,29.81 84.31,44.85 145.94,44.85 93.69,0 168.36,-24.13 224.3,-72.69 55.65,-48.54 83.47,-114.7 83.47,-198.47l0 -122.37zm6.53 335.32c-46.57,50.25 -96.82,88.01 -151.32,113 -54.24,25 -112.73,37.48 -175.47,37.48 -89.15,0 -160.42,-23.28 -213.24,-69.85 -53.09,-46.55 -79.49,-108.73 -79.49,-186.25 0,-50.53 11.93,-94.55 36.06,-132.31 24.13,-37.76 59.06,-67.29 105.06,-88.87 52.81,-23.84 140.82,-40.6 263.77,-49.97 23.85,-1.71 42.01,-3.12 54.22,-4.25 7.11,-1.7 16.74,-3.69 28.96,-5.96 84.32,-17.05 126.64,-53.39 126.64,-108.75 0,-68.72 -17.03,-118.11 -51.11,-147.64 -34.35,-29.82 -90.29,-44.57 -168.65,-44.57 -79.23,0 -139.98,16.45 -182.3,49.39 -42,33.22 -64.74,82.06 -68.14,146.8l-100.5 -0.85c2.26,-88.01 34.62,-157.85 97.39,-208.97 62.46,-51.39 147.07,-76.94 253.54,-76.94 105.9,0 186.53,22.71 241.32,68.14 54.81,45.42 82.34,112.14 82.34,199.58l0 482.4c0,36.63 4.55,59.34 13.36,68.14 8.78,8.79 25.55,13.34 49.96,13.34 7.67,0 14.49,0 19.87,-0.28 5.68,-0.28 11.37,-0.85 17.61,-1.42l0 76.67c-12.78,2.83 -25.55,4.82 -38.33,6.25 -12.78,1.42 -24.41,1.98 -34.93,1.98 -42.02,0 -73.82,-10.22 -94.83,-30.66 -21.01,-20.73 -31.8,-51.11 -31.8,-91.72l0 -13.9zm678.88 128.05l0 -1225.15 112.43 0 0 531.79 700.45 0 0 -531.79 113.86 0 0 1225.15 -113.86 0 0 -592.84 -700.45 0 0 592.84 -112.43 0zm1168.38 -422.48l0 5.12c0,107.87 26.12,193.91 78.07,258.09 52.25,63.88 122.1,95.96 209.82,95.96 69.29,0 127.2,-18.73 173.77,-56.21 46.55,-37.2 74.95,-88.59 84.89,-153.33l102.21 0c-11.08,89.73 -49.98,161.83 -116.41,215.79 -66.44,54.22 -150.2,81.19 -251.27,81.19 -120.09,0 -214.36,-40.87 -282.78,-122.37 -68.14,-81.49 -102.21,-194.49 -102.21,-339.3 0,-147.35 34.35,-262.63 102.78,-345.25 68.43,-82.63 163.54,-123.79 285.63,-123.79 118.68,0 211.25,39.46 277.4,118.4 66.15,79.22 99.38,189.65 99.38,331.63l0 34.07 -661.27 0zm1.71 -82.34l553.93 0.84c-4.54,-97.67 -30.95,-174.32 -79.5,-229.98 -48.54,-55.93 -113,-83.75 -193.35,-83.75 -80.92,0 -146.79,28.39 -197.61,84.89 -50.53,56.51 -78.66,132.6 -83.47,228zm1341.28 41.46c-27.26,9.94 -61.89,18.18 -104.49,24.12 -42.29,6.25 -110.73,11.65 -204.98,16.76 -65.59,17.31 -114.72,41.46 -147.93,73.26 -33.23,31.52 -49.97,69.56 -49.97,113.84 0,50.55 17.88,90.57 53.66,120.69 35.78,29.81 84.32,44.85 145.94,44.85 93.7,0 168.36,-24.13 224.3,-72.69 55.65,-48.54 83.47,-114.7 83.47,-198.47l0 -122.37zm6.53 335.32c-46.56,50.25 -96.82,88.01 -151.32,113 -54.24,25 -112.73,37.48 -175.47,37.48 -89.15,0 -160.42,-23.28 -213.24,-69.85 -53.09,-46.55 -79.49,-108.73 -79.49,-186.25 0,-50.53 11.93,-94.55 36.06,-132.31 24.13,-37.76 59.06,-67.29 105.06,-88.87 52.81,-23.84 140.82,-40.6 263.77,-49.97 23.85,-1.71 42.01,-3.12 54.22,-4.25 7.11,-1.7 16.74,-3.69 28.97,-5.96 84.31,-17.05 126.63,-53.39 126.63,-108.75 0,-68.72 -17.03,-118.11 -51.1,-147.64 -34.36,-29.82 -90.3,-44.57 -168.66,-44.57 -79.23,0 -139.98,16.45 -182.3,49.39 -42,33.22 -64.74,82.06 -68.14,146.8l-100.5 -0.85c2.26,-88.01 34.62,-157.85 97.39,-208.97 62.46,-51.39 147.07,-76.94 253.54,-76.94 105.9,0 186.54,22.71 241.32,68.14 54.81,45.42 82.35,112.14 82.35,199.58l0 482.4c0,36.63 4.54,59.34 13.35,68.14 8.78,8.79 25.55,13.34 49.96,13.34 7.67,0 14.49,0 19.87,-0.28 5.68,-0.28 11.37,-0.85 17.61,-1.42l0 76.67c-12.78,2.83 -25.55,4.82 -38.33,6.25 -12.78,1.42 -24.41,1.98 -34.92,1.98 -42.03,0 -73.83,-10.22 -94.84,-30.66 -21.01,-20.73 -31.8,-51.11 -31.8,-91.72l0 -13.9zm279.98 128.05l0 -1225.15 101.37 0 0 1225.15 -101.37 0zm406.32 -1137.98l0 253.83 163.83 0 0 83.19 -163.83 0 0 644.81c0,37.48 4.83,62.45 14.21,74.66 9.37,12.21 26.4,18.18 50.52,18.18 10.79,0 22.73,-0.85 35.78,-2.84 13.35,-1.98 34.07,-5.96 62.46,-11.93l0.85 81.5c-24.99,6.53 -47.69,11.36 -68.14,14.47 -20.44,3.13 -40.02,4.54 -58.2,4.54 -51.11,0 -87.16,-12.76 -108.16,-38.61 -21.03,-25.84 -31.52,-72.39 -31.52,-139.96l0 -644.81 -120.68 0 0 -83.19 120.68 0 0 -253.83 102.19 0zm258.15 1137.98l0 -1225.15 103.9 0 0 478.99c32.64,-52.53 73.54,-92.56 122.38,-119.82 48.83,-26.98 105.04,-40.59 168.64,-40.59 58.79,0 111.59,11.07 158.15,33.22 46.55,22.14 82.05,52.81 106.47,91.43 12.78,21.29 21.87,46.84 27.55,77.51 5.39,30.38 8.22,85.74 8.22,166.37l0 538.05 -103.91 0 0 -536.63c0,-110.15 -15.9,-183.98 -47.41,-221.46 -31.52,-37.48 -88.01,-56.21 -168.94,-56.21 -82.62,0 -148.49,26.4 -197.61,79.49 -49.12,52.83 -73.54,124.09 -73.54,213.24l0 521.57 -103.9 0z"/>
   <path class="fil4" d="M5853.6 3747.44l0 -456.52 59.01 0 0 187.57 225.35 0 0 -187.57 59.31 0 0 456.52 -59.31 0 0 -213.81 -225.35 0 0 213.81 -59.01 0zm505.18 -196.15l173.39 0c-0.2,-31 -7.67,-54.91 -22.46,-71.74 -14.69,-16.8 -35.63,-25.29 -62.74,-25.29 -26.18,0 -46.81,8.26 -61.81,24.75 -15.01,16.62 -23.86,40.64 -26.38,72.28zm172.29 88.87l52.46 0c-5.74,36.6 -20.84,65.5 -45.41,86.55 -24.58,21.05 -55.59,31.63 -92.94,31.63 -43.81,0 -78.43,-15.45 -103.81,-46.46 -25.38,-30.98 -38.07,-73.32 -38.07,-126.84 0,-56.6 12.58,-100.85 37.77,-132.68 25.17,-31.83 59.91,-47.72 104.11,-47.72 45.42,0 80.56,14.71 105.43,44.02 24.87,29.3 37.35,70.78 37.35,124.31 0,6.78 0,11.86 -0.09,15.14 -0.12,3.27 -0.42,6.55 -0.81,9.62l-227.98 0c0.59,34.91 8.85,62.01 24.77,81.15 15.91,19.16 38.07,28.68 66.36,28.68 21.65,0 39.47,-5.83 53.56,-17.57 14.1,-11.65 23.17,-28.26 27.3,-49.84zm346.97 62.95c-16.5,18.2 -34.12,31.85 -52.66,40.95 -18.63,9.1 -38.25,13.65 -59.11,13.65 -32.3,0 -57.49,-8.89 -75.51,-26.57 -18.12,-17.67 -27.19,-42.09 -27.19,-73.21 0,-30.27 8.85,-53.84 26.68,-70.99 17.83,-17.26 44.9,-28.25 81.36,-33.22 9.15,-1.06 21.64,-2.44 37.35,-4.34 26.99,-2.86 43.51,-5.72 49.63,-8.37 6.06,-2.44 10.08,-5.71 12.09,-9.74 1.9,-4.01 2.91,-12.8 2.91,-26.23 0,-16.93 -5.94,-29.64 -17.72,-38.1 -11.77,-8.45 -29.6,-12.7 -53.37,-12.7 -24.58,0 -43.09,5.2 -55.57,15.45 -12.5,10.37 -18.74,25.71 -18.74,45.92l-50.14 0 0 -2.44c0,-33.54 11.17,-59.98 33.63,-79.46 22.44,-19.36 53.26,-29.1 92.63,-29.1 42.2,0 73.31,8.37 93.34,24.98 19.94,16.61 29.92,42.65 29.92,77.97l0 166.11c0,14.17 1.49,23.38 4.43,27.51 2.91,4.12 8.26,6.24 15.9,6.24 1.61,0 3.53,-0.1 5.74,-0.42 2.32,-0.33 5.05,-0.86 8.16,-1.49l0 43.18c-6.45,1.79 -12.18,3.15 -16.93,3.9 -4.81,0.75 -9.45,1.06 -13.78,1.06 -17.72,0 -30.92,-4.02 -39.77,-12.06 -8.86,-8.14 -13.31,-20.32 -13.31,-36.61l0 -1.9zm-5.03 -124.62c-14.2,8.03 -38.45,14.37 -72.89,18.92 -12.19,1.69 -21.25,2.97 -27.4,4.03 -19.22,3.28 -33.13,9.31 -41.57,17.99 -8.46,8.68 -12.69,21.27 -12.69,37.88 0,16.51 4.93,29.2 14.69,38.09 9.88,8.87 23.98,13.33 42.2,13.33 28.61,0 51.97,-7.51 70.28,-22.64 18.24,-15.13 27.39,-34.4 27.39,-57.98l0 -49.61zm172.39 168.95l0 -456.52 53.97 0 0 456.52 -53.97 0zm232.21 -83.68c0,14.91 2.02,24.86 6.03,29.83 4.04,4.99 11.47,7.4 22.26,7.4 3.13,0 6.95,-0.1 11.39,-0.31 4.43,-0.19 10.16,-0.63 17.21,-1.25l0 47.39c-8.86,1.69 -16.71,2.85 -23.75,3.7 -6.95,0.84 -13.19,1.27 -18.74,1.27 -24.87,0 -42.38,-5.09 -52.46,-15.13 -9.96,-10.15 -15.01,-28.14 -15.01,-53.96l0 -222.91 -47.21 0 0 -44.33 47.21 0 0 -92.67 53.08 0 0 92.67 56.88 0 0 44.33 -56.88 0 0 203.98zm351.81 83.68l0 -204.29c0,-32.81 -4.73,-55.46 -14.29,-67.82 -9.57,-12.39 -25.98,-18.63 -49.13,-18.63 -28.7,0 -51.56,8.58 -68.49,25.6 -16.91,17.05 -25.35,40 -25.35,69l0 196.15 -53.08 0 0 -456.52 53.08 0 0 171.39c9.66,-17.99 22.95,-31.75 39.86,-41.16 16.93,-9.42 36.66,-14.08 59.31,-14.08 23.77,0 43.81,3.81 60.11,11.33 16.32,7.5 28.91,18.83 37.77,33.95 4.93,8.05 8.45,17.47 10.67,28.36 2.12,10.78 3.21,28.04 3.21,51.62l0 15.76 0 199.33 -53.67 0zm389.19 0l0 -287.66 -51.95 0 0 -44.33 51.95 0 0 -48.99c0,-27.51 5.94,-48.02 17.83,-61.78 11.88,-13.74 29.71,-20.64 53.57,-20.64 3.72,0 8.46,0.33 14.09,0.96 5.74,0.63 14.1,1.69 25.07,3.38l0 50.15c-5.74,-0.94 -10.46,-1.79 -14.3,-2.32 -3.82,-0.53 -6.95,-0.75 -9.27,-0.75 -12.39,0 -21.03,3.59 -25.97,10.9 -4.94,7.2 -7.35,20.95 -7.35,41.15l0 27.95 56.88 0 0 44.33 -56.88 0 0 287.66 -53.69 0zm220.13 -166.42c0,41.16 8.45,72.57 25.27,94.37 16.81,21.79 40.77,32.69 72.09,32.69 31.01,0 54.88,-10.9 71.39,-32.69 16.5,-21.8 24.76,-53.21 24.76,-94.37 0,-40.93 -8.26,-72.25 -24.76,-94.04 -16.51,-21.82 -40.38,-32.71 -71.39,-32.71 -31.51,0 -55.58,10.89 -72.31,32.59 -16.71,21.7 -25.05,53.02 -25.05,94.17zm-54.29 0c0,-55.54 13.2,-98.91 39.67,-129.92 26.48,-31 63.54,-46.46 111.38,-46.46 48.02,0 85.28,15.45 111.77,46.34 26.59,30.91 39.88,74.28 39.88,130.03 0,55.77 -13.19,99.23 -39.67,130.24 -26.48,31 -63.53,46.46 -111.37,46.46 -48.03,0 -85.29,-15.45 -111.77,-46.34 -26.58,-30.9 -39.89,-74.39 -39.89,-130.35zm401.26 166.42l0 -332 51.25 0 0 59.57c8.45,-22.33 19.93,-39.05 34.43,-50.05 14.49,-11.11 32.23,-16.61 53.27,-16.61 3.92,0 6.84,0 8.56,0.1 1.81,0.12 3.52,0.43 5.34,0.84l0 58.94c-1.42,-0.21 -2.93,-0.44 -4.75,-0.53 -1.81,-0.12 -4.43,-0.12 -7.94,-0.12 -28.4,0 -49.95,8.15 -64.86,24.34 -14.8,16.18 -22.24,39.78 -22.24,70.78l0 184.72 -53.07 0zm640.21 -44.33c-16.5,18.2 -34.13,31.85 -52.66,40.95 -18.64,9.1 -38.25,13.65 -59.11,13.65 -32.31,0 -57.5,-8.89 -75.52,-26.57 -18.12,-17.67 -27.19,-42.09 -27.19,-73.21 0,-30.27 8.86,-53.84 26.68,-70.99 17.83,-17.26 44.9,-28.25 81.36,-33.22 9.16,-1.06 21.64,-2.44 37.35,-4.34 26.99,-2.86 43.51,-5.72 49.64,-8.37 6.05,-2.44 10.07,-5.71 12.09,-9.74 1.9,-4.01 2.91,-12.8 2.91,-26.23 0,-16.93 -5.94,-29.64 -17.72,-38.1 -11.76,-8.45 -29.6,-12.7 -53.37,-12.7 -24.57,0 -43.09,5.2 -55.57,15.45 -12.5,10.37 -18.74,25.71 -18.74,45.92l-50.14 0 0 -2.44c0,-33.54 11.17,-59.98 33.63,-79.46 22.44,-19.36 53.26,-29.1 92.63,-29.1 42.2,0 73.31,8.37 93.34,24.98 19.94,16.61 29.92,42.65 29.92,77.97l0 166.11c0,14.17 1.49,23.38 4.43,27.51 2.92,4.12 8.26,6.24 15.9,6.24 1.61,0 3.53,-0.1 5.74,-0.42 2.32,-0.33 5.05,-0.86 8.17,-1.49l0 43.18c-6.45,1.79 -12.18,3.15 -16.93,3.9 -4.82,0.75 -9.45,1.06 -13.79,1.06 -17.72,0 -30.91,-4.02 -39.77,-12.06 -8.85,-8.14 -13.3,-20.32 -13.3,-36.61l0 -1.9zm-5.03 -124.62c-14.2,8.03 -38.46,14.37 -72.9,18.92 -12.18,1.69 -21.25,2.97 -27.39,4.03 -19.23,3.28 -33.13,9.31 -41.58,17.99 -8.46,8.68 -12.69,21.27 -12.69,37.88 0,16.51 4.94,29.2 14.69,38.09 9.89,8.87 23.98,13.33 42.2,13.33 28.62,0 51.97,-7.51 70.29,-22.64 18.23,-15.13 27.39,-34.4 27.39,-57.98l0 -49.61zm172.39 168.95l0 -456.52 53.96 0 0 456.52 -53.96 0zm170.57 0l0 -456.52 53.97 0 0 456.52 -53.97 0zm182.04 0l0 -69.09 60.53 0 0 69.09 -60.53 0zm481.24 -189.7l135.42 0 -67.25 -201.44 -68.17 201.44zm-125.67 189.7l161.42 -456.52 65.14 0 161.92 456.52 -64.05 0 -46.02 -136.38 -170.97 0 -46.32 136.38 -61.12 0zm461.77 0l0 -456.52 53.97 0 0 456.52 -53.97 0zm170.57 0l0 -456.52 53.97 0 0 456.52 -53.97 0zm391.81 0l0 -287.66 -51.95 0 0 -44.33 51.95 0 0 -48.99c0,-27.51 5.94,-48.02 17.82,-61.78 11.88,-13.74 29.71,-20.64 53.57,-20.64 3.72,0 8.46,0.33 14.09,0.96 5.74,0.63 14.1,1.69 25.07,3.38l0 50.15c-5.74,-0.94 -10.46,-1.79 -14.29,-2.32 -3.83,-0.53 -6.96,-0.75 -9.27,-0.75 -12.4,0 -21.04,3.59 -25.98,10.9 -4.93,7.2 -7.35,20.95 -7.35,41.15l0 27.95 56.88 0 0 44.33 -56.88 0 0 287.66 -53.68 0zm220.12 -166.42c0,41.16 8.45,72.57 25.27,94.37 16.81,21.79 40.77,32.69 72.09,32.69 31.02,0 54.88,-10.9 71.4,-32.69 16.5,-21.8 24.75,-53.21 24.75,-94.37 0,-40.93 -8.25,-72.25 -24.75,-94.04 -16.52,-21.82 -40.38,-32.71 -71.4,-32.71 -31.51,0 -55.57,10.89 -72.3,32.59 -16.71,21.7 -25.06,53.02 -25.06,94.17zm-54.28 0c0,-55.54 13.19,-98.91 39.67,-129.92 26.48,-31 63.53,-46.46 111.37,-46.46 48.03,0 85.28,15.45 111.77,46.34 26.6,30.91 39.88,74.28 39.88,130.03 0,55.77 -13.19,99.23 -39.67,130.24 -26.47,31 -63.53,46.46 -111.37,46.46 -48.03,0 -85.28,-15.45 -111.77,-46.34 -26.58,-30.9 -39.88,-74.39 -39.88,-130.35zm401.25 166.42l0 -332 51.26 0 0 59.57c8.45,-22.33 19.92,-39.05 34.42,-50.05 14.5,-11.11 32.24,-16.61 53.27,-16.61 3.93,0 6.84,0 8.56,0.1 1.82,0.12 3.53,0.43 5.35,0.84l0 58.94c-1.43,-0.21 -2.94,-0.44 -4.75,-0.53 -1.82,-0.12 -4.44,-0.12 -7.95,-0.12 -28.4,0 -49.94,8.15 -64.86,24.34 -14.79,16.18 -22.23,39.78 -22.23,70.78l0 184.72 -53.08 0zm655.22 0l0 -204.29c0,-32.81 -4.73,-55.46 -14.3,-67.82 -9.57,-12.39 -25.98,-18.63 -49.13,-18.63 -28.7,0 -51.55,8.58 -68.48,25.6 -16.92,17.05 -25.36,40 -25.36,69l0 196.15 -53.07 0 0 -456.52 53.07 0 0 171.39c9.66,-17.99 22.95,-31.75 39.86,-41.16 16.94,-9.42 36.66,-14.08 59.32,-14.08 23.76,0 43.8,3.81 60.11,11.33 16.31,7.5 28.91,18.83 37.76,33.95 4.94,8.05 8.45,17.47 10.68,28.36 2.11,10.78 3.21,28.04 3.21,51.62l0 15.76 0 199.33 -53.67 0zm207.83 -196.15l173.39 0c-0.21,-31 -7.67,-54.91 -22.46,-71.74 -14.69,-16.8 -35.64,-25.29 -62.74,-25.29 -26.18,0 -46.81,8.26 -61.81,24.75 -15.01,16.62 -23.86,40.64 -26.38,72.28zm172.29 88.87l52.46 0c-5.74,36.6 -20.84,65.5 -45.41,86.55 -24.58,21.05 -55.59,31.63 -92.95,31.63 -43.8,0 -78.42,-15.45 -103.81,-46.46 -25.37,-30.98 -38.06,-73.32 -38.06,-126.84 0,-56.6 12.58,-100.85 37.77,-132.68 25.17,-31.83 59.91,-47.72 104.1,-47.72 45.43,0 80.56,14.71 105.44,44.02 24.87,29.3 37.35,70.78 37.35,124.31 0,6.78 0,11.86 -0.1,15.14 -0.11,3.27 -0.41,6.55 -0.8,9.62l-227.99 0c0.6,34.91 8.86,62.01 24.78,81.15 15.9,19.16 38.07,28.68 66.36,28.68 21.64,0 39.47,-5.83 53.55,-17.57 14.11,-11.65 23.18,-28.26 27.31,-49.84zm346.97 62.95c-16.5,18.2 -34.12,31.85 -52.66,40.95 -18.63,9.1 -38.25,13.65 -59.11,13.65 -32.3,0 -57.49,-8.89 -75.51,-26.57 -18.12,-17.67 -27.19,-42.09 -27.19,-73.21 0,-30.27 8.85,-53.84 26.68,-70.99 17.82,-17.26 44.9,-28.25 81.36,-33.22 9.15,-1.06 21.64,-2.44 37.35,-4.34 26.99,-2.86 43.51,-5.72 49.63,-8.37 6.06,-2.44 10.08,-5.71 12.09,-9.74 1.9,-4.01 2.91,-12.8 2.91,-26.23 0,-16.93 -5.94,-29.64 -17.72,-38.1 -11.77,-8.45 -29.6,-12.7 -53.37,-12.7 -24.58,0 -43.09,5.2 -55.57,15.45 -12.5,10.37 -18.74,25.71 -18.74,45.92l-50.14 0 0 -2.44c0,-33.54 11.17,-59.98 33.63,-79.46 22.44,-19.36 53.25,-29.1 92.63,-29.1 42.19,0 73.31,8.37 93.33,24.98 19.94,16.61 29.92,42.65 29.92,77.97l0 166.11c0,14.17 1.49,23.38 4.44,27.51 2.91,4.12 8.26,6.24 15.9,6.24 1.61,0 3.53,-0.1 5.74,-0.42 2.32,-0.33 5.05,-0.86 8.16,-1.49l0 43.18c-6.45,1.79 -12.18,3.15 -16.93,3.9 -4.82,0.75 -9.45,1.06 -13.79,1.06 -17.72,0 -30.91,-4.02 -39.76,-12.06 -8.86,-8.14 -13.31,-20.32 -13.31,-36.61l0 -1.9zm-5.03 -124.62c-14.2,8.03 -38.46,14.37 -72.89,18.92 -12.19,1.69 -21.25,2.97 -27.4,4.03 -19.23,3.28 -33.13,9.31 -41.57,17.99 -8.46,8.68 -12.69,21.27 -12.69,37.88 0,16.51 4.93,29.2 14.69,38.09 9.88,8.87 23.98,13.33 42.2,13.33 28.61,0 51.97,-7.51 70.28,-22.64 18.24,-15.13 27.39,-34.4 27.39,-57.98l0 -49.61zm172.39 168.95l0 -456.52 53.97 0 0 456.52 -53.97 0zm232.2 -83.68c0,14.91 2.02,24.86 6.04,29.83 4.04,4.99 11.47,7.4 22.26,7.4 3.13,0 6.95,-0.1 11.38,-0.31 4.44,-0.19 10.17,-0.63 17.21,-1.25l0 47.39c-8.85,1.69 -16.71,2.85 -23.74,3.7 -6.95,0.84 -13.19,1.27 -18.74,1.27 -24.88,0 -42.38,-5.09 -52.46,-15.13 -9.96,-10.15 -15.01,-28.14 -15.01,-53.96l0 -222.91 -47.21 0 0 -44.33 47.21 0 0 -92.67 53.07 0 0 92.67 56.88 0 0 44.33 -56.88 0 0 203.98zm351.82 83.68l0 -204.29c0,-32.81 -4.73,-55.46 -14.3,-67.82 -9.56,-12.39 -25.97,-18.63 -49.13,-18.63 -28.7,0 -51.55,8.58 -68.48,25.6 -16.91,17.05 -25.35,40 -25.35,69l0 196.15 -53.08 0 0 -456.52 53.08 0 0 171.39c9.66,-17.99 22.95,-31.75 39.86,-41.16 16.93,-9.42 36.66,-14.08 59.31,-14.08 23.77,0 43.8,3.81 60.11,11.33 16.32,7.5 28.91,18.83 37.77,33.95 4.93,8.05 8.45,17.47 10.67,28.36 2.11,10.78 3.21,28.04 3.21,51.62l0 15.76 0 199.33 -53.67 0zm179.43 0l0 -69.09 60.52 0 0 69.09 -60.52 0z"/>
  </g>
 </g>
</svg>
